<?xml version="1.0" standalone="no"?>
<!DOCTYPE svg PUBLIC "-//W3C//DTD SVG 20010904//EN"
 "http://www.w3.org/TR/2001/REC-SVG-20010904/DTD/svg10.dtd">
<svg version="1.0" xmlns="http://www.w3.org/2000/svg"
 width="96.000000pt" height="96.000000pt" viewBox="0 0 96.000000 96.000000"
 preserveAspectRatio="xMidYMid meet">
<metadata>
Created by potrace 1.14, written by Peter Selinger 2001-2017
</metadata>
<g transform="translate(0.000000,96.000000) scale(0.100000,-0.100000)"
fill="#000000" stroke="none">
<path d="M885 882 c-39 -21 -53 -36 -65 -69 -8 -23 -18 -44 -21 -47 -4 -4
-495 -70 -684 -91 -109 -12 -115 -15 -115 -46 0 -19 5 -29 15 -29 8 0 17 -12
21 -28 9 -41 34 -142 45 -184 l10 -38 266 -2 267 -3 40 -64 c62 -100 75 -96
-293 -99 -196 -1 -311 -6 -311 -12 0 -6 7 -10 15 -10 21 0 36 -34 29 -68 -5
-22 -1 -35 15 -51 26 -26 55 -27 81 -1 27 27 25 56 -5 84 -13 13 -22 26 -18
29 3 4 89 7 189 7 170 0 184 -1 194 -19 5 -11 7 -33 4 -49 -5 -22 -1 -35 15
-51 26 -26 55 -27 81 -1 27 27 25 56 -5 84 -28 26 -24 36 15 36 60 0 66 55 15
135 -31 50 -33 55 -15 55 11 0 20 1 20 3 0 1 36 107 78 236 76 227 79 234 113
250 70 35 78 41 73 56 -8 20 -11 19 -69 -13z m-99 -164 c-2 -7 -10 -32 -17
-55 -11 -41 -13 -43 -49 -43 l-37 0 8 47 c10 53 20 63 67 63 23 0 32 -4 28
-12z m-120 -45 c-3 -25 -8 -48 -10 -50 -2 -2 -20 -7 -40 -10 l-36 -6 0 51 c0
48 2 51 28 55 67 10 65 11 58 -40z m-106 13 c0 -7 -3 -28 -6 -45 -6 -27 -10
-31 -40 -31 -33 0 -34 1 -34 38 0 21 3 42 7 45 13 13 73 7 73 -7z m-100 -39
c0 -40 -2 -43 -30 -45 -29 -2 -30 0 -30 36 0 45 5 52 37 52 20 0 23 -5 23 -43z
m-90 -7 c0 -38 -2 -40 -30 -40 -27 0 -30 3 -30 34 0 34 9 44 43 45 13 1 17 -7
17 -39z m-80 -4 c0 -33 -13 -46 -46 -46 -18 0 -19 66 -1 73 34 14 47 7 47 -27z
m-88 1 c7 -35 -1 -47 -33 -47 -33 0 -36 10 -13 45 20 31 40 32 46 2z m-87 -37
c3 -5 3 -10 -2 -10 -4 0 -18 -3 -30 -6 -17 -5 -23 -2 -23 10 0 18 45 23 55 6z
m625 -9 c0 -4 -7 -31 -15 -59 -14 -45 -19 -52 -42 -52 -21 0 -24 3 -19 23 3
12 6 32 6 44 0 12 6 28 13 35 15 15 57 21 57 9z m-190 -26 c0 -13 -3 -37 -6
-54 -6 -26 -11 -31 -35 -31 -28 0 -29 2 -29 49 0 44 3 50 23 53 42 7 47 5 47
-17z m95 -22 c-9 -61 -10 -63 -46 -63 -28 0 -29 2 -29 48 0 27 3 52 7 55 3 4
22 7 41 7 l34 0 -7 -47z m-275 -13 c0 -47 -2 -50 -25 -50 -14 0 -25 3 -26 8
-8 81 -8 81 20 85 14 2 27 5 29 6 1 0 2 -21 2 -49z m87 0 c-2 -48 -3 -50 -29
-50 -27 0 -28 2 -28 50 0 49 1 50 29 50 28 0 29 -1 28 -50z m-247 -5 c0 -43
-1 -45 -29 -45 -26 0 -29 3 -33 40 -3 35 -1 39 22 43 14 2 28 5 33 6 4 0 7
-19 7 -44z m80 0 c0 -43 -1 -45 -30 -45 -29 0 -30 2 -30 45 0 43 1 45 30 45
29 0 30 -2 30 -45z m-170 11 c0 -13 3 -31 6 -40 5 -12 0 -16 -20 -16 -14 0
-26 4 -26 9 0 5 -3 23 -6 40 -6 28 -4 31 20 31 21 0 26 -5 26 -24z m10 -105
c0 -16 3 -36 6 -45 4 -10 1 -16 -9 -16 -10 0 -20 15 -26 38 -14 50 -14 52 9
52 15 0 20 -7 20 -29z m80 -16 c0 -41 -2 -45 -24 -45 -21 0 -24 5 -28 45 -3
43 -2 45 24 45 26 0 28 -3 28 -45z m80 0 c0 -41 -2 -45 -25 -45 -17 0 -25 6
-26 18 0 9 -2 26 -4 36 -5 27 2 36 31 36 22 0 24 -4 24 -45z m80 0 c0 -41 -2
-45 -24 -45 -21 0 -24 5 -28 45 -3 43 -2 45 24 45 26 0 28 -3 28 -45z m80 0
c0 -41 -2 -45 -25 -45 -23 0 -25 4 -25 45 0 41 2 45 25 45 23 0 25 -4 25 -45z
m90 16 c0 -45 -10 -61 -36 -61 -22 0 -24 4 -24 45 0 43 1 45 30 45 26 0 30 -3
30 -29z m86 7 c-3 -13 -6 -33 -6 -45 0 -19 -6 -23 -30 -23 -28 0 -30 2 -30 38
0 46 5 52 43 52 26 0 29 -3 23 -22z m74 17 c0 -2 -7 -23 -16 -45 -17 -43 -51
-58 -40 -17 3 12 6 32 6 45 0 17 6 22 25 22 14 0 25 -2 25 -5z"/>
</g>
</svg>
